HIERARCHY
ROOT root
{
	OFFSET	0	13.1	24.9
	CHANNELS 6  Xposition Yposition Zposition Xrotation Yrotation Zrotation
	JOINT spine_1
	{
		OFFSET	0	9.99999	0
		CHANNELS 3  Xrotation Yrotation Zrotation
		JOINT spine_2
		{
			OFFSET	0	112	-10
			CHANNELS 3  Xrotation Yrotation Zrotation
			JOINT spine_3
			{
				OFFSET	0	206.5	19.3
				CHANNELS 3  Xrotation Yrotation Zrotation
				JOINT spine_4
				{
					OFFSET	0	110.4	14.6
					CHANNELS 3  Xrotation Yrotation Zrotation
					JOINT neck_1
					{
						OFFSET	0	71.8	-50.3
						CHANNELS 3  Xrotation Yrotation Zrotation
						JOINT neck_2
						{
							OFFSET	0	86.2	-25.8
							CHANNELS 3  Xrotation Yrotation Zrotation
							JOINT head_ee
							{
								OFFSET	0	179.8	-8.7
								CHANNELS 3  Xrotation Yrotation Zrotation
								End Site
								{
									OFFSET	1	0	0
								}
							}
						}
					}
					JOINT left_clavicle
					{
						OFFSET	-43.2	22.4	-70.8
						CHANNELS 3  Xrotation Yrotation Zrotation
						JOINT left_shoulder
						{
							OFFSET	-93.9	-5.79999	48.7
							CHANNELS 3  Xrotation Yrotation Zrotation
							JOINT left_elbow
							{
								OFFSET	-291.4	-30.8	15.2
								CHANNELS 3  Xrotation Yrotation Zrotation
								JOINT left_lowarm_twist
								{
									OFFSET	-110.7	-3.89999	13.6
									CHANNELS 3  Xrotation Yrotation Zrotation
									JOINT left_hand
									{
										OFFSET	-110.7	-3.89999	13.6
										CHANNELS 3  Xrotation Yrotation Zrotation
										JOINT left_ee
										{
											OFFSET	-80.8	-5.10001	12.1
											CHANNELS 3  Xrotation Yrotation Zrotation
											End Site
											{
												OFFSET	1	0	0
											}
										}
									}
								}
							}
						}
					}
					JOINT right_clavicle
					{
						OFFSET	43.2	22.4	-70.8
						CHANNELS 3  Xrotation Yrotation Zrotation
						JOINT right_shoulder
						{
							OFFSET	93.9	-5.79999	48.7
							CHANNELS 3  Xrotation Yrotation Zrotation
							JOINT right_elbow
							{
								OFFSET	291.4	-30.8	15.2
								CHANNELS 3  Xrotation Yrotation Zrotation
								JOINT right_lowarm_twist
								{
									OFFSET	110.7	-3.89999	13.6
									CHANNELS 3  Xrotation Yrotation Zrotation
									JOINT right_hand
									{
										OFFSET	110.7	-3.89999	13.6
										CHANNELS 3  Xrotation Yrotation Zrotation
										JOINT right_ee
										{
											OFFSET	80.8	-5.10001	12.1
											CHANNELS 3  Xrotation Yrotation Zrotation
											End Site
											{
												OFFSET	1	0	0
											}
										}
									}
								}
							}
						}
					}
				}
			}
		}
	}
	JOINT left_hip
	{
		OFFSET	-82.8	-127.5	0.300001
		CHANNELS 3  Xrotation Yrotation Zrotation
		JOINT left_knee
		{
			OFFSET	-28.2	-396.7	2.2
			CHANNELS 3  Xrotation Yrotation Zrotation
			JOINT left_ankle
			{
				OFFSET	-11.7	-411.3	35.4
				CHANNELS 3  Xrotation Yrotation Zrotation
				JOINT left_toes
				{
					OFFSET	0	-60	-88.6
					CHANNELS 3  Xrotation Yrotation Zrotation
					JOINT left_foot_ee
					{
						OFFSET	-22.5	-16.5	-42.2
						CHANNELS 3  Xrotation Yrotation Zrotation
						End Site
						{
							OFFSET	1	0	0
						}
					}
				}
			}
		}
	}
	JOINT right_hip
	{
		OFFSET	82.8	-127.5	0.300001
		CHANNELS 3  Xrotation Yrotation Zrotation
		JOINT right_knee
		{
			OFFSET	28.2	-396.7	2.2
			CHANNELS 3  Xrotation Yrotation Zrotation
			JOINT right_ankle
			{
				OFFSET	11.7	-411.3	35.4
				CHANNELS 3  Xrotation Yrotation Zrotation
				JOINT right_toes
				{
					OFFSET	0	-60	-88.6
					CHANNELS 3  Xrotation Yrotation Zrotation
					JOINT right_foot_ee
					{
						OFFSET	22.5	-16.5	-42.2
						CHANNELS 3  Xrotation Yrotation Zrotation
						End Site
						{
							OFFSET	1	0	0
						}
					}
				}
			}
		}
	}
}
MOTION
Frames: 14
Frame Time: 0.02
3574.42 741.953 -1474.73 -8.85290797907 12.2917688045 -0.0653442109534 3.18805 0.0811345 -0.546766 3.1882 0.115762 -0.540496 3.18705 0.198406 -0.515919 3.18669 0.114438 -0.540778 -14.0677 14.3051 4.47722 -14.4994 24.6068 8.89825 -0.0 0.0 -0.0 5.28776 11.9969 10.3343 -11.2533 -25.0767 70.2604 0.748994 -20.3563 0.134472 24.8471 0.196673 -3.14314 0.421434 2.13811 3.69783 -0.0 0.0 -0.0 6.08882 -8.03055 -11.795 -11.9549 19.8101 -66.1718 0.8225 22.1679 -0.161132 -25.6787 1.57221 -2.85441 -2.31731 -7.84777 11.8396 0.0 0.0 0.0 32.0855 60.5378 -30.3395 -16.1681 0.321584 2.45211 13.4997 -17.9279 -2.09974 -10.6555 0.0 0.0 -0.0 0.0 -0.0 8.38832 34.0828 5.83403 1.40102 0.0602231 0.206549 41.4565 -23.9308 5.27064 4.18176 -0.0 -0.0 0.0 0.0 0.0 
3574.42 741.953 -1474.73 -8.83706778497 11.8150602778 -0.141198009724 3.18805 0.0811345 -0.546766 3.1882 0.115762 -0.540496 3.18705 0.198406 -0.515919 3.18669 0.114438 -0.540778 -14.0677 14.3051 4.47722 -14.4994 24.6068 8.89825 -0.0 0.0 -0.0 5.28776 11.9969 10.3343 -11.2533 -25.0767 70.2604 0.748994 -20.3563 0.134472 24.8471 0.196673 -3.14314 0.421434 2.13811 3.69783 -0.0 0.0 -0.0 6.08882 -8.03055 -11.795 -11.9549 19.8101 -66.1718 0.8225 22.1679 -0.161132 -25.6787 1.57221 -2.85441 -2.31731 -7.84777 11.8396 0.0 0.0 0.0 32.0855 60.5378 -30.3395 -16.1681 0.321584 2.45211 13.4997 -17.9279 -2.09974 -10.6555 0.0 0.0 -0.0 0.0 -0.0 8.38832 34.0828 5.83403 1.40102 0.0602231 0.206549 41.4565 -23.9308 5.27064 4.18176 -0.0 -0.0 0.0 0.0 0.0 
3574.42 741.953 -1474.73 -8.82335661678 11.3850916243 -0.209385414368 3.18805 0.0811345 -0.546766 3.1882 0.115762 -0.540496 3.18705 0.198406 -0.515919 3.18669 0.114438 -0.540778 -14.0677 14.3051 4.47722 -14.4994 24.6068 8.89825 -0.0 0.0 -0.0 5.28776 11.9969 10.3343 -11.2533 -25.0767 70.2604 0.748994 -20.3563 0.134472 24.8471 0.196673 -3.14314 0.421434 2.13811 3.69783 -0.0 0.0 -0.0 6.08882 -8.03055 -11.795 -11.9549 19.8101 -66.1718 0.8225 22.1679 -0.161132 -25.6787 1.57221 -2.85441 -2.31731 -7.84777 11.8396 0.0 0.0 0.0 32.0855 60.5378 -30.3395 -16.1681 0.321584 2.45211 13.4997 -17.9279 -2.09974 -10.6555 0.0 0.0 -0.0 0.0 -0.0 8.38832 34.0828 5.83403 1.40102 0.0602231 0.206549 41.4565 -23.9308 5.27064 4.18176 -0.0 -0.0 0.0 0.0 0.0 
3584.53629544 740.696 -1477.37685995 -9.10431796303 10.2735277609 -0.559205317037 3.23418 0.158281 -0.322808 3.23422 0.178501 -0.312082 3.23322 0.224634 -0.280709 3.23316 0.177482 -0.312663 -13.9963 13.8899 5.55972 -14.3293 23.1461 9.73765 -0.0 0.0 -0.0 4.83637 7.91301 9.53471 -10.3151 -26.0039 70.9881 0.776222 -21.0326 0.144095 26.4022 0.163469 -3.339 0.442513 2.34184 3.92158 -0.0 0.0 -0.0 6.39976 -8.13521 -12.3576 -12.7342 19.4411 -67.1536 0.871314 23.3459 -0.180015 -25.2527 1.53607 -2.8135 -2.48585 -8.12748 12.8188 0.0 0.0 0.0 31.7259 60.5323 -29.5583 -14.5856 0.320832 2.20931 15.4661 -18.6606 -2.3986 -10.6117 0.0 0.0 -0.0 0.0 -0.0 8.36834 34.9148 4.72963 2.66377 0.118824 0.39143 42.2969 -25.5406 5.40191 5.29022 -0.0 -0.0 0.0 0.0 0.0 
3584.57179555 740.696 -1477.23725908 -9.08258338943 9.49418526346 -0.685822668505 3.23418 0.158281 -0.322808 3.23422 0.178501 -0.312082 3.23322 0.224634 -0.280709 3.23316 0.177482 -0.312663 -13.9963 13.8899 5.55972 -14.3293 23.1461 9.73765 -0.0 0.0 -0.0 4.83637 7.91301 9.53471 -10.3151 -26.0039 70.9881 0.776222 -21.0326 0.144095 26.4022 0.163469 -3.339 0.442513 2.34184 3.92158 -0.0 0.0 -0.0 6.39976 -8.13521 -12.3576 -12.7342 19.4411 -67.1536 0.871314 23.3459 -0.180015 -25.2527 1.53607 -2.8135 -2.48585 -8.12748 12.8188 0.0 0.0 0.0 31.7259 60.5323 -29.5583 -14.5856 0.320832 2.20931 15.4661 -18.6606 -2.3986 -10.6117 0.0 0.0 -0.0 0.0 -0.0 8.36834 34.9148 4.72963 2.66377 0.118824 0.39143 42.2969 -25.5406 5.40191 5.29022 -0.0 -0.0 0.0 0.0 0.0 
3584.61280714 740.696 -1477.06494829 -9.05830869677 8.53579855533 -0.840736067986 3.23418 0.158281 -0.322808 3.23422 0.178501 -0.312082 3.23322 0.224634 -0.280709 3.23316 0.177482 -0.312663 -13.9963 13.8899 5.55972 -14.3293 23.1461 9.73765 -0.0 0.0 -0.0 4.83637 7.91301 9.53471 -10.3151 -26.0039 70.9881 0.776222 -21.0326 0.144095 26.4022 0.163469 -3.339 0.442513 2.34184 3.92158 -0.0 0.0 -0.0 6.39976 -8.13521 -12.3576 -12.7342 19.4411 -67.1536 0.871314 23.3459 -0.180015 -25.2527 1.53607 -2.8135 -2.48585 -8.12748 12.8188 0.0 0.0 0.0 31.7259 60.5323 -29.5583 -14.5856 0.320832 2.20931 15.4661 -18.6606 -2.3986 -10.6117 0.0 0.0 -0.0 0.0 -0.0 8.36834 34.9148 4.72963 2.66377 0.118824 0.39143 42.2969 -25.5406 5.40191 5.29022 -0.0 -0.0 0.0 0.0 0.0 
3584.64801747 740.696 -1476.90553662 -9.03830150736 7.65240820067 -0.982828953584 3.23418 0.158281 -0.322808 3.23422 0.178501 -0.312082 3.23322 0.224634 -0.280709 3.23316 0.177482 -0.312663 -13.9963 13.8899 5.55972 -14.3293 23.1461 9.73765 -0.0 0.0 -0.0 4.83637 7.91301 9.53471 -10.3151 -26.0039 70.9881 0.776222 -21.0326 0.144095 26.4022 0.163469 -3.339 0.442513 2.34184 3.92158 -0.0 0.0 -0.0 6.39976 -8.13521 -12.3576 -12.7342 19.4411 -67.1536 0.871314 23.3459 -0.180015 -25.2527 1.53607 -2.8135 -2.48585 -8.12748 12.8188 0.0 0.0 0.0 31.7259 60.5323 -29.5583 -14.5856 0.320832 2.20931 15.4661 -18.6606 -2.3986 -10.6117 0.0 0.0 -0.0 0.0 -0.0 8.36834 34.9148 4.72963 2.66377 0.118824 0.39143 42.2969 -25.5406 5.40191 5.29022 -0.0 -0.0 0.0 0.0 0.0 
3584.70056961 740.696 -1476.64185497 -9.01023410439 6.19740407826 -1.21560228926 3.23418 0.158281 -0.322808 3.23422 0.178501 -0.312082 3.23322 0.224634 -0.280709 3.23316 0.177482 -0.312663 -13.9963 13.8899 5.55972 -14.3293 23.1461 9.73765 -0.0 0.0 -0.0 4.83637 7.91301 9.53471 -10.3151 -26.0039 70.9881 0.776222 -21.0326 0.144095 26.4022 0.163469 -3.339 0.442513 2.34184 3.92158 -0.0 0.0 -0.0 6.39976 -8.13521 -12.3576 -12.7342 19.4411 -67.1536 0.871314 23.3459 -0.180015 -25.2527 1.53607 -2.8135 -2.48585 -8.12748 12.8188 0.0 0.0 0.0 31.7259 60.5323 -29.5583 -14.5856 0.320832 2.20931 15.4661 -18.6606 -2.3986 -10.6117 0.0 0.0 -0.0 0.0 -0.0 8.36834 34.9148 4.72963 2.66377 0.118824 0.39143 42.2969 -25.5406 5.40191 5.29022 -0.0 -0.0 0.0 0.0 0.0 
3584.75567497 740.696 -1476.31717484 -8.98402197989 4.41507808226 -1.4990059508 3.23418 0.158281 -0.322808 3.23422 0.178501 -0.312082 3.23322 0.224634 -0.280709 3.23316 0.177482 -0.312663 -13.9963 13.8899 5.55972 -14.3293 23.1461 9.73765 -0.0 0.0 -0.0 4.83637 7.91301 9.53471 -10.3151 -26.0039 70.9881 0.776222 -21.0326 0.144095 26.4022 0.163469 -3.339 0.442513 2.34184 3.92158 -0.0 0.0 -0.0 6.39976 -8.13521 -12.3576 -12.7342 19.4411 -67.1536 0.871314 23.3459 -0.180015 -25.2527 1.53607 -2.8135 -2.48585 -8.12748 12.8188 0.0 0.0 0.0 31.7259 60.5323 -29.5583 -14.5856 0.320832 2.20931 15.4661 -18.6606 -2.3986 -10.6117 0.0 0.0 -0.0 0.0 -0.0 8.36834 34.9148 4.72963 2.66377 0.118824 0.39143 42.2969 -25.5406 5.40191 5.29022 -0.0 -0.0 0.0 0.0 0.0 
3594.88796216 736.208 -1487.62002909 -9.50401753488 -1.63939166613 -2.4208747963 3.55864 -0.0820006 -0.479771 3.55876 -0.0513056 -0.484017 3.55914 0.0214242 -0.486257 3.55881 -0.0556389 -0.483538 -13.458 14.7933 3.80528 -13.9164 25.8632 8.29806 -0.0 0.0 -0.0 3.58673 8.72699 7.33049 -8.98302 -30.5873 73.4582 1.03498 -27.1435 0.249854 27.157 0.145437 -3.43374 1.59812 -0.443372 10.5601 -0.0 0.0 -0.0 5.85068 -5.21986 -11.3755 -15.6414 19.6073 -67.3787 1.04244 27.3109 -0.253268 -20.8881 1.18372 -2.37941 -1.71015 -6.55769 8.44765 0.0 0.0 0.0 32.614 60.0804 -30.7406 -14.4037 0.320315 2.18141 14.6681 -17.321 -2.2581 -10.9275 0.0 0.0 -0.0 0.0 -0.0 11.4679 30.9065 2.22713 -1.53565 -0.0601773 -0.227978 41.9292 -23.5587 5.30218 9.68602 -0.0 -0.0 0.0 0.0 0.0 
3595.75122993 736.208 -1486.13477771 -9.546958761 -5.65339171959 -3.09564432822 3.55864 -0.0820006 -0.479771 3.55876 -0.0513056 -0.484017 3.55914 0.0214242 -0.486257 3.55881 -0.0556389 -0.483538 -13.458 14.7933 3.80528 -13.9164 25.8632 8.29806 -0.0 0.0 -0.0 3.58673 8.72699 7.33049 -8.98302 -30.5873 73.4582 1.03498 -27.1435 0.249854 27.157 0.145437 -3.43374 1.59812 -0.443372 10.5601 -0.0 0.0 -0.0 5.85068 -5.21986 -11.3755 -15.6414 19.6073 -67.3787 1.04244 27.3109 -0.253268 -20.8881 1.18372 -2.37941 -1.71015 -6.55769 8.44765 0.0 0.0 0.0 32.614 60.0804 -30.7406 -14.4037 0.320315 2.18141 14.6681 -17.321 -2.2581 -10.9275 0.0 0.0 -0.0 0.0 -0.0 11.4679 30.9065 2.22713 -1.53565 -0.0601773 -0.227978 41.9292 -23.5587 5.30218 9.68602 -0.0 -0.0 0.0 0.0 0.0 
3596.39464228 736.208 -1484.83966971 -9.62047831784 -9.03156640578 -3.67066018265 3.55864 -0.0820006 -0.479771 3.55876 -0.0513056 -0.484017 3.55914 0.0214242 -0.486257 3.55881 -0.0556389 -0.483538 -13.458 14.7933 3.80528 -13.9164 25.8632 8.29806 -0.0 0.0 -0.0 3.58673 8.72699 7.33049 -8.98302 -30.5873 73.4582 1.03498 -27.1435 0.249854 27.157 0.145437 -3.43374 1.59812 -0.443372 10.5601 -0.0 0.0 -0.0 5.85068 -5.21986 -11.3755 -15.6414 19.6073 -67.3787 1.04244 27.3109 -0.253268 -20.8881 1.18372 -2.37941 -1.71015 -6.55769 8.44765 0.0 0.0 0.0 32.614 60.0804 -30.7406 -14.4037 0.320315 2.18141 14.6681 -17.321 -2.2581 -10.9275 0.0 0.0 -0.0 0.0 -0.0 11.4679 30.9065 2.22713 -1.53565 -0.0601773 -0.227978 41.9292 -23.5587 5.30218 9.68602 -0.0 -0.0 0.0 0.0 0.0 
3596.76363826 736.208 -1483.99564377 -9.68570985303 -11.1827698086 -4.04230448879 3.55864 -0.0820006 -0.479771 3.55876 -0.0513056 -0.484017 3.55914 0.0214242 -0.486257 3.55881 -0.0556389 -0.483538 -13.458 14.7933 3.80528 -13.9164 25.8632 8.29806 -0.0 0.0 -0.0 3.58673 8.72699 7.33049 -8.98302 -30.5873 73.4582 1.03498 -27.1435 0.249854 27.157 0.145437 -3.43374 1.59812 -0.443372 10.5601 -0.0 0.0 -0.0 5.85068 -5.21986 -11.3755 -15.6414 19.6073 -67.3787 1.04244 27.3109 -0.253268 -20.8881 1.18372 -2.37941 -1.71015 -6.55769 8.44765 0.0 0.0 0.0 32.614 60.0804 -30.7406 -14.4037 0.320315 2.18141 14.6681 -17.321 -2.2581 -10.9275 0.0 0.0 -0.0 0.0 -0.0 11.4679 30.9065 2.22713 -1.53565 -0.0601773 -0.227978 41.9292 -23.5587 5.30218 9.68602 -0.0 -0.0 0.0 0.0 0.0 
3596.90555769 736.208 -1483.64571761 -9.71671461339 -12.0644361198 -4.19618379823 3.55864 -0.0820006 -0.479771 3.55876 -0.0513056 -0.484017 3.55914 0.0214242 -0.486257 3.55881 -0.0556389 -0.483538 -13.458 14.7933 3.80528 -13.9164 25.8632 8.29806 -0.0 0.0 -0.0 3.58673 8.72699 7.33049 -8.98302 -30.5873 73.4582 1.03498 -27.1435 0.249854 27.157 0.145437 -3.43374 1.59812 -0.443372 10.5601 -0.0 0.0 -0.0 5.85068 -5.21986 -11.3755 -15.6414 19.6073 -67.3787 1.04244 27.3109 -0.253268 -20.8881 1.18372 -2.37941 -1.71015 -6.55769 8.44765 0.0 0.0 0.0 32.614 60.0804 -30.7406 -14.4037 0.320315 2.18141 14.6681 -17.321 -2.2581 -10.9275 0.0 0.0 -0.0 0.0 -0.0 11.4679 30.9065 2.22713 -1.53565 -0.0601773 -0.227978 41.9292 -23.5587 5.30218 9.68602 -0.0 -0.0 0.0 0.0 0.0 
